<svg width="64" height="64" xmlns="http://www.w3.org/2000/svg">

 <g>
  <title>background</title>
  <rect fill="none" id="canvas_background" height="402" width="582" y="-1" x="-1"/>
 </g>
 <g>
  <title>Layer 1</title>
  <circle fill-opacity="0.99" id="svg_2" r="32" fill="#314659" cy="32" cx="32"/>
  <path opacity="0.2" id="svg_6" fill="#231F20" d="m32,41.5c3.315,0 6,-2.685 6,-6l0,-18c0,-3.315 -2.685,-6 -6,-6s-6,2.685 -6,6l0,18c0,3.315 2.685,6 6,6z"/>
  <path opacity="0.2" id="svg_9" fill="#231F20" d="m32,48.25c-7.168,0 -13,-5.832 -13,-13l0,-3.75c0,-0.828 0.672,-1.5 1.5,-1.5s1.5,0.672 1.5,1.5l0,3.75c0,5.514 4.486,10 10,10s10,-4.486 10,-10l0,-3.75c0,-0.828 0.672,-1.5 1.5,-1.5s1.5,0.672 1.5,1.5l0,3.75c0,7.168 -5.832,13 -13,13z"/>
  <path opacity="0.2" id="svg_12" fill="#231F20" d="m32,55c-0.828,0 -1.5,-0.672 -1.5,-1.5l0,-6c0,-0.828 0.672,-1.5 1.5,-1.5s1.5,0.672 1.5,1.5l0,6c0,0.828 -0.672,1.5 -1.5,1.5z"/>
  <path opacity="0.2" id="svg_15" fill="#231F20" d="m37,56l-10,0c-0.828,0 -1.5,-0.672 -1.5,-1.5s0.672,-1.5 1.5,-1.5l10,0c0.828,0 1.5,0.672 1.5,1.5s-0.672,1.5 -1.5,1.5z"/>
  <path id="svg_18" fill="#ffffff" d="m32,39.5c3.315,0 6,-2.685 6,-6l0,-18c0,-3.315 -2.685,-6 -6,-6s-6,2.685 -6,6l0,18c0,3.315 2.685,6 6,6z"/>
  <path id="svg_20" fill="#FFFFFF" d="m32,46.25c-7.168,0 -13,-5.832 -13,-13l0,-3.75c0,-0.828 0.672,-1.5 1.5,-1.5s1.5,0.672 1.5,1.5l0,3.75c0,5.514 4.486,10 10,10s10,-4.486 10,-10l0,-3.75c0,-0.828 0.672,-1.5 1.5,-1.5s1.5,0.672 1.5,1.5l0,3.75c0,7.168 -5.832,13 -13,13z"/>
  <path id="svg_22" fill="#FFFFFF" d="m32,53c-0.828,0 -1.5,-0.672 -1.5,-1.5l0,-6c0,-0.828 0.672,-1.5 1.5,-1.5s1.5,0.672 1.5,1.5l0,6c0,0.828 -0.672,1.5 -1.5,1.5z"/>
  <path id="svg_24" fill="#FFFFFF" d="m37,54l-10,0c-0.828,0 -1.5,-0.672 -1.5,-1.5s0.672,-1.5 1.5,-1.5l10,0c0.828,0 1.5,0.672 1.5,1.5s-0.672,1.5 -1.5,1.5z"/>
 </g>
</svg>